<svg xmlns="http://www.w3.org/2000/svg" width="17" height="21" viewBox="0 0 17 21" fill="none">
    <path d="M16.8071 14.95C16.3156 14.0093 15.585 11.3478 15.585 7.87152C15.585 5.78386 14.8386 3.78171 13.51 2.30551C12.1814 0.829318 10.3794 0 8.50044 0C6.6215 0 4.81952 0.829318 3.4909 2.30551C2.16229 3.78171 1.41589 5.78386 1.41589 7.87152C1.41589 11.3488 0.684404 14.0093 0.192913 14.95C0.067402 15.1891 0.000863692 15.4608 8.35177e-06 15.7376C-0.000846988 16.0145 0.064011 16.2866 0.188042 16.5267C0.312072 16.7668 0.490889 16.9663 0.70646 17.1051C0.92203 17.2439 1.16673 17.3171 1.41589 17.3173H5.02989C5.19335 18.206 5.62803 19.0046 6.26042 19.5782C6.89282 20.1518 7.6841 20.4651 8.50044 20.4651C9.31678 20.4651 10.1081 20.1518 10.7405 19.5782C11.3729 19.0046 11.8075 18.206 11.971 17.3173H15.585C15.8341 17.317 16.0787 17.2437 16.2941 17.1048C16.5096 16.9659 16.6883 16.7664 16.8122 16.5263C16.9361 16.2862 17.0009 16.0141 17 15.7374C16.9991 15.4606 16.9326 15.189 16.8071 14.95ZM8.50044 18.8916C8.06104 18.8915 7.63248 18.74 7.27375 18.4581C6.91502 18.1762 6.64375 17.7776 6.49728 17.3173H10.5036C10.3571 17.7776 10.0859 18.1762 9.72714 18.4581C9.3684 18.74 8.93985 18.8915 8.50044 18.8916ZM1.41589 15.743C2.09777 14.4403 2.8328 11.4216 2.8328 7.87152C2.8328 6.20139 3.42992 4.59967 4.49281 3.41872C5.5557 2.23776 6.99729 1.5743 8.50044 1.5743C10.0036 1.5743 11.4452 2.23776 12.5081 3.41872C13.571 4.59967 14.1681 6.20139 14.1681 7.87152C14.1681 11.4186 14.9013 14.4373 15.585 15.743H1.41589Z" fill="white"/>
</svg>