<svg width="16" height="18" viewBox="0 0 16 18" fill="none" xmlns="http://www.w3.org/2000/svg">
<path id="Vector" fill-rule="evenodd" clip-rule="evenodd" d="M4.11323 1.68279C4.16182 1.22066 4.37613 0.793175 4.71496 0.482535C5.05379 0.171895 5.49321 3.37499e-05 5.94872 0H10.0513C10.5068 3.37499e-05 10.9462 0.171895 11.285 0.482535C11.6239 0.793175 11.8382 1.22066 11.8868 1.68279C12.5136 1.69619 13.0544 1.72884 13.5171 1.81591C14.1391 1.93312 14.6683 2.15414 15.0991 2.59451C15.593 3.09767 15.8047 3.73312 15.9048 4.4866C16 5.21163 16 6.13507 16 7.27953V12.3949C16 13.5393 16 14.4628 15.9048 15.1887C15.8047 15.9421 15.593 16.5767 15.0991 17.0807C14.6051 17.5847 13.9832 17.8007 13.2447 17.9029C12.5333 18 11.6283 18 10.5067 18H5.49333C4.37169 18 3.46667 18 2.75528 17.9029C2.01682 17.8007 1.39487 17.5847 0.900923 17.0807C0.406974 16.5767 0.195282 15.9421 0.0960001 15.1887C8.55862e-08 14.4628 0 13.5393 0 12.3949V7.27953C0 6.13507 8.55862e-08 5.21163 0.0960001 4.48577C0.194462 3.73228 0.407795 3.09767 0.900923 2.59367C1.33169 2.15414 1.86092 1.93228 2.48287 1.81591C2.94564 1.72884 3.48718 1.69619 4.11323 1.68279ZM4.11487 2.9386C3.52574 2.952 3.07118 2.98214 2.70523 3.05079C2.24082 3.13786 1.97087 3.27851 1.77149 3.48195C1.54421 3.71386 1.39651 4.0387 1.31528 4.65405C1.23241 5.2853 1.23077 6.12419 1.23077 7.32558V12.3488C1.23077 13.5502 1.23241 14.3883 1.31528 15.0212C1.39651 15.6357 1.54503 15.9606 1.77149 16.1925C1.99877 16.4244 2.31713 16.5751 2.92021 16.658C3.53887 16.7425 4.36103 16.7442 5.53846 16.7442H10.4615C11.639 16.7442 12.4603 16.7425 13.0806 16.658C13.6829 16.5751 14.0012 16.4235 14.2285 16.1925C14.4558 15.9606 14.6035 15.6357 14.6847 15.0204C14.7676 14.3883 14.7692 13.5502 14.7692 12.3488V7.32558C14.7692 6.12419 14.7676 5.2853 14.6847 4.65321C14.6035 4.0387 14.455 3.71386 14.2285 3.48195C14.0283 3.27851 13.7592 3.1387 13.2948 3.05079C12.9288 2.98214 12.4743 2.952 11.8851 2.93944C11.8326 3.39811 11.6168 3.82112 11.2788 4.12811C10.9407 4.4351 10.5039 4.60469 10.0513 4.60465H5.94872C5.49602 4.60467 5.05909 4.43496 4.72099 4.1278C4.38289 3.82063 4.16718 3.39742 4.11487 2.9386ZM5.94872 1.25581C5.78551 1.25581 5.62898 1.32197 5.51358 1.43972C5.39817 1.55748 5.33333 1.71719 5.33333 1.88372V2.72093C5.33333 3.06753 5.60903 3.34884 5.94872 3.34884H10.0513C10.2145 3.34884 10.371 3.28268 10.4864 3.16493C10.6018 3.04717 10.6667 2.88746 10.6667 2.72093V1.88372C10.6667 1.71719 10.6018 1.55748 10.4864 1.43972C10.371 1.32197 10.2145 1.25581 10.0513 1.25581H5.94872ZM3.28205 7.74419C3.28205 7.57765 3.34689 7.41794 3.46229 7.30019C3.5777 7.18243 3.73423 7.11628 3.89744 7.11628H4.30769C4.4709 7.11628 4.62743 7.18243 4.74283 7.30019C4.85824 7.41794 4.92308 7.57765 4.92308 7.74419C4.92308 7.91072 4.85824 8.07043 4.74283 8.18818C4.62743 8.30594 4.4709 8.37209 4.30769 8.37209H3.89744C3.73423 8.37209 3.5777 8.30594 3.46229 8.18818C3.34689 8.07043 3.28205 7.91072 3.28205 7.74419ZM6.15385 7.74419C6.15385 7.57765 6.21868 7.41794 6.33409 7.30019C6.4495 7.18243 6.60602 7.11628 6.76923 7.11628H12.1026C12.2658 7.11628 12.4223 7.18243 12.5377 7.30019C12.6531 7.41794 12.7179 7.57765 12.7179 7.74419C12.7179 7.91072 12.6531 8.07043 12.5377 8.18818C12.4223 8.30594 12.2658 8.37209 12.1026 8.37209H6.76923C6.60602 8.37209 6.4495 8.30594 6.33409 8.18818C6.21868 8.07043 6.15385 7.91072 6.15385 7.74419ZM3.28205 10.6744C3.28205 10.5079 3.34689 10.3482 3.46229 10.2304C3.5777 10.1127 3.73423 10.0465 3.89744 10.0465H4.30769C4.4709 10.0465 4.62743 10.1127 4.74283 10.2304C4.85824 10.3482 4.92308 10.5079 4.92308 10.6744C4.92308 10.841 4.85824 11.0007 4.74283 11.1184C4.62743 11.2362 4.4709 11.3023 4.30769 11.3023H3.89744C3.73423 11.3023 3.5777 11.2362 3.46229 11.1184C3.34689 11.0007 3.28205 10.841 3.28205 10.6744ZM6.15385 10.6744C6.15385 10.5079 6.21868 10.3482 6.33409 10.2304C6.4495 10.1127 6.60602 10.0465 6.76923 10.0465H12.1026C12.2658 10.0465 12.4223 10.1127 12.5377 10.2304C12.6531 10.3482 12.7179 10.5079 12.7179 10.6744C12.7179 10.841 12.6531 11.0007 12.5377 11.1184C12.4223 11.2362 12.2658 11.3023 12.1026 11.3023H6.76923C6.60602 11.3023 6.4495 11.2362 6.33409 11.1184C6.21868 11.0007 6.15385 10.841 6.15385 10.6744ZM3.28205 13.6047C3.28205 13.4381 3.34689 13.2784 3.46229 13.1607C3.5777 13.0429 3.73423 12.9767 3.89744 12.9767H4.30769C4.4709 12.9767 4.62743 13.0429 4.74283 13.1607C4.85824 13.2784 4.92308 13.4381 4.92308 13.6047C4.92308 13.7712 4.85824 13.9309 4.74283 14.0486C4.62743 14.1664 4.4709 14.2326 4.30769 14.2326H3.89744C3.73423 14.2326 3.5777 14.1664 3.46229 14.0486C3.34689 13.9309 3.28205 13.7712 3.28205 13.6047ZM6.15385 13.6047C6.15385 13.4381 6.21868 13.2784 6.33409 13.1607C6.4495 13.0429 6.60602 12.9767 6.76923 12.9767H12.1026C12.2658 12.9767 12.4223 13.0429 12.5377 13.1607C12.6531 13.2784 12.7179 13.4381 12.7179 13.6047C12.7179 13.7712 12.6531 13.9309 12.5377 14.0486C12.4223 14.1664 12.2658 14.2326 12.1026 14.2326H6.76923C6.60602 14.2326 6.4495 14.1664 6.33409 14.0486C6.21868 13.9309 6.15385 13.7712 6.15385 13.6047Z" fill="#000"/>
</svg>
