<svg width="17" height="13" viewBox="0 0 16 12" fill="none" xmlns="http://www.w3.org/2000/svg">
<path id="Vector" d="M15.2727 0C15.4656 0 15.6506 0.0702379 15.787 0.195262C15.9234 0.320286 16 0.489856 16 0.666667V11.338C15.9987 11.5131 15.9223 11.6807 15.7873 11.8045C15.6523 11.9284 15.4695 11.9986 15.2785 12H2.176C1.98459 11.9998 1.80109 11.93 1.66581 11.8059C1.53053 11.6817 1.45455 11.5135 1.45455 11.338V10.6667H14.5455V2.86667L8.72727 7.66667L1.45455 1.66667V0.666667C1.45455 0.489856 1.53117 0.320286 1.66756 0.195262C1.80395 0.0702379 1.98893 0 2.18182 0H15.2727ZM5.81818 8V9.33333H0V8H5.81818ZM3.63636 4.66667V6H0V4.66667H3.63636ZM14.2298 1.33333H3.22473L8.72727 5.87333L14.2298 1.33333Z" fill="#000"/>
</svg>
