<svg width="16" height="16" viewBox="0 0 16 16" fill="none" xmlns="http://www.w3.org/2000/svg">
<g id="Frame 61234">
<g id="Group 27463">
<rect id="Rectangle 267" width="16" height="16" rx="4" fill="#3EAB49"/>
<path id="Vector" d="M9.33367 9.68555L10.0226 8.99639C10.1153 8.90472 10.2327 8.84197 10.3605 8.81576C10.4882 8.78954 10.6208 8.80099 10.7422 8.84871L11.5818 9.18406C11.7044 9.23387 11.8096 9.31887 11.884 9.42837C11.9584 9.53788 11.9988 9.66697 12 9.79938V11.3377C11.9993 11.4278 11.9804 11.5167 11.9444 11.5993C11.9084 11.6819 11.856 11.7563 11.7905 11.8181C11.725 11.8799 11.6477 11.9278 11.5632 11.9589C11.4787 11.99 11.3887 12.0037 11.2988 11.9991C5.41568 11.633 4.2286 6.64895 4.0041 4.74147C3.99367 4.6478 4.0032 4.55298 4.03203 4.46326C4.06087 4.37353 4.10838 4.29093 4.17142 4.22089C4.23446 4.15085 4.3116 4.09496 4.39779 4.05689C4.48397 4.01882 4.57724 3.99943 4.67145 4.00001H6.15684C6.28939 4.00041 6.41879 4.04046 6.5284 4.11502C6.63801 4.18959 6.72282 4.29525 6.77191 4.41843L7.10712 5.25834C7.1564 5.37927 7.16898 5.51205 7.14327 5.64008C7.11757 5.76812 7.05472 5.88574 6.96258 5.97826L6.2737 6.66741C6.2737 6.66741 6.67042 9.35327 9.33367 9.68555Z" fill="white"/>
</g>
</g>
</svg>
